<svg width="20" height="20" viewBox="0 0 20 20" fill="none" xmlns="http://www.w3.org/2000/svg">
<path d="M7.08333 12.0833C7.63587 12.0833 8.16577 11.8638 8.55647 11.4731C8.94717 11.0824 9.16666 10.5525 9.16666 10C9.16666 8.85 8.75 8.33333 8.33333 7.5C7.44 5.71417 8.14666 4.12167 10 2.5C10.4167 4.58333 11.6667 6.58333 13.3333 7.91667C15 9.25 15.8333 10.8333 15.8333 12.5C15.8333 13.266 15.6824 14.0246 15.3893 14.7323C15.0961 15.4401 14.6665 16.0831 14.1248 16.6248C13.5831 17.1665 12.9401 17.5961 12.2323 17.8893C11.5246 18.1824 10.766 18.3333 10 18.3333C9.23395 18.3333 8.47541 18.1824 7.76768 17.8893C7.05994 17.5961 6.41688 17.1665 5.87521 16.6248C5.33353 16.0831 4.90385 15.4401 4.6107 14.7323C4.31755 14.0246 4.16666 13.266 4.16666 12.5C4.16666 11.5392 4.5275 10.5883 5 10C5 10.5525 5.21949 11.0824 5.61019 11.4731C6.00089 11.8638 6.5308 12.0833 7.08333 12.0833Z" stroke="#FFFFFF" stroke-width="2" stroke-linecap="round" stroke-linejoin="round"/>
</svg>
